<svg xmlns="http://www.w3.org/2000/svg" xmlns:xlink="http://www.w3.org/1999/xlink" version="1.1" id="Layer_1" x="0px" y="0px" width="36px" height="36px" viewBox="0 0 36 36" enable-background="new 0 0 36 36" xml:space="preserve">
<g>
	<path d="M34,28c0-8-7-9-7-17c0-3.936-2.53-7.273-6.05-8.495C20.713,1.085,19.487,0,18,0s-2.713,1.085-2.95,2.505   c-1.603,0.557-2.996,1.555-4.043,2.845L34,28.344V28z"/>
	<path d="M18,32c-7.732,0-14-1.344-14-3c0-0.817,1.532-1.559,4.01-2.1C8.009,26.935,8,26.966,8,27c0,1.656,1.343,3,3,3s3-1.344,3-3   c0-0.304-0.059-0.59-0.142-0.866C15.167,26.047,16.558,26,18,26c0.817,0,1.612,0.019,2.391,0.047L8.548,14.205   C7.016,19.453,2,21.219,2,28v2c0,2.209,7.163,4,16,4c3.584,0,6.881-0.298,9.548-0.796l-1.717-1.717C23.596,31.811,20.901,32,18,32z   "/>
	<path d="M35.414,32.586l-32-32c-0.78-0.781-2.048-0.781-2.828,0c-0.781,0.781-0.781,2.047,0,2.828l32,32   C32.977,35.805,33.488,36,34,36s1.023-0.195,1.414-0.586C36.195,34.633,36.195,33.367,35.414,32.586z"/>
</g>
</svg>