<svg xmlns="http://www.w3.org/2000/svg" xmlns:xlink="http://www.w3.org/1999/xlink" version="1.1" id="Layer_1" x="0px" y="0px" width="36px" height="36px" viewBox="0 0 36 36" enable-background="new 0 0 36 36" xml:space="preserve">
<path d="M27,11c0-3.936-2.53-7.273-6.05-8.495C20.713,1.085,19.487,0,18,0s-2.713,1.085-2.95,2.505C11.53,3.727,9,7.064,9,11  c0,8-7,9-7,17v2c0,2.209,7.163,4,16,4c8.838,0,16-1.791,16-4v-2C34,20,27,19,27,11z M18,32c-7.732,0-14-1.344-14-3  c0-0.817,1.532-1.559,4.01-2.1C8.009,26.935,8,26.966,8,27c0,1.656,1.343,3,3,3s3-1.344,3-3c0-0.304-0.059-0.59-0.142-0.866  C15.167,26.047,16.558,26,18,26c7.732,0,14,1.344,14,3S25.732,32,18,32z"/>
</svg>