<svg xmlns="http://www.w3.org/2000/svg" xmlns:xlink="http://www.w3.org/1999/xlink" version="1.1" id="Layer_1" x="0px" y="0px" width="24px" height="18px" viewBox="0 0 24 18" enable-background="new 0 0 24 18" xml:space="preserve">
<g>
	<circle cx="12" cy="10" r="4"/>
	<path d="M22,2h-7V1c0-0.553-0.448-1-1-1h-4C9.448,0,9,0.448,9,1v1H2C0.896,2,0,2.896,0,4v12c0,1.104,0.896,2,2,2h20   c1.104,0,2-0.896,2-2V4C24,2.896,23.104,2,22,2z M12,16c-3.313,0-6-2.687-6-6s2.687-6,6-6s6,2.687,6,6S15.313,16,12,16z"/>
</g>
</svg>