<svg xmlns="http://www.w3.org/2000/svg" xmlns:xlink="http://www.w3.org/1999/xlink" version="1.1" id="Ebene_1" x="0px" y="0px" width="90px" height="90px" viewBox="0 0 90 90" enable-background="new 0 0 90 90" xml:space="preserve">
<path d="M68.102,44.064c-1.208-0.205-2.463-0.318-3.753-0.318c-1.192,0-2.16,0.968-2.16,2.16v24.549c0,1.192,0.968,2.16,2.16,2.16  c1.29,0,2.545-0.112,3.753-0.317V44.064z"/>
<path d="M72.075,45.148v26.066c5.553-2.137,9.367-6.498,9.367-11.522V56.67C81.442,51.646,77.628,47.284,72.075,45.148z"/>
<path d="M44.229,21.358h1.543c11.971,0,21.771,10.087,22.307,22.7l3.997,1.09c0-15.309-11.799-27.763-26.304-27.763h-1.543h-0.022  c-14.505,0-26.304,12.454-26.304,27.763l3.997-1.09c0.536-12.613,10.336-22.7,22.307-22.7H44.229z"/>
<path d="M21.899,44.064c1.209-0.205,2.463-0.318,3.752-0.318c1.193,0,2.16,0.968,2.16,2.16v24.549c0,1.192-0.967,2.16-2.16,2.16  c-1.289,0-2.543-0.112-3.752-0.317V44.064z"/>
<path d="M17.926,45.148v26.066c-5.553-2.137-9.368-6.498-9.368-11.522V56.67C8.558,51.646,12.373,47.284,17.926,45.148z"/>
</svg>