<?xml version="1.0" encoding="utf-8"?>
<!-- Generator: Adobe Illustrator 15.1.0, SVG Export Plug-In . SVG Version: 6.00 Build 0)  -->
<!DOCTYPE svg PUBLIC "-//W3C//DTD SVG 1.1//EN" "http://www.w3.org/Graphics/SVG/1.1/DTD/svg11.dtd">
<svg version="1.1" id="Layer_1" xmlns="http://www.w3.org/2000/svg" xmlns:xlink="http://www.w3.org/1999/xlink" x="0px" y="0px"
	 width="79px" height="100px" viewBox="0 0 79 100" enable-background="new 0 0 79 100" xml:space="preserve">
<path d="M62.34,4.419C61.051,2.893,59.708,1.414,58.295,0l-4.428,4.038c1.416,1.408,2.764,2.885,4.047,4.418
	C67.327,19.702,73,34.162,73,49.919c0,15.834-5.73,30.352-15.221,41.619l-6.621-6.074C59.176,75.8,64,63.412,64,49.919
	c0-13.428-4.779-25.763-12.729-35.406c-1.271-1.542-2.629-3.011-4.057-4.408l-4.436,4.044l-6.652,6.066l-4.435,4.044
	c1.473,1.353,2.825,2.832,4.048,4.416C40.287,34.564,43,41.931,43,49.919c0,8.029-2.741,15.428-7.328,21.332l-6.649-6.104
	C32.149,60.871,34,55.607,34,49.919c0-5.656-1.832-10.893-4.929-15.16c-1.177-1.623-2.538-3.104-4.052-4.414l-4.465,4.072
	c1.562,1.26,2.933,2.742,4.055,4.408C26.748,42.001,28,45.818,28,49.919c0,4.127-1.264,7.963-3.424,11.148
	c-1.127,1.662-2.507,3.139-4.072,4.395l4.454,4.086l6.655,6.107l4.421,4.057c1.46-1.365,2.817-2.836,4.063-4.4
	C45.663,68.332,49,59.511,49,49.919c0-9.543-3.305-18.326-8.822-25.291l6.656-6.068C53.809,27.132,58,38.044,58,49.919
	c0,11.932-4.229,22.893-11.264,31.486c-1.268,1.545-2.631,3.01-4.07,4.395l4.42,4.057l6.633,6.086l4.42,4.057
	c1.416-1.408,2.762-2.887,4.055-4.41C72.667,83.251,79,67.314,79,49.919C79,32.607,72.727,16.734,62.34,4.419z"/>
<circle cx="8" cy="49.921" r="8"/>
</svg>
